<mxfile host="app.diagrams.net" modified="2023-12-17T18:36:46.942Z" agent="Mozilla/5.0 (Windows NT 10.0; Win64; x64) AppleWebKit/537.36 (KHTML, like Gecko) Chrome/120.0.0.0 Safari/537.36" version="22.1.11" etag="uvY_hrZ_5wCwNXwcaLIE" type="github">
  <diagram name="Page-1" id="VPD6R2002amOGUYekXLG">
    <mxGraphModel>
      <root>
        <mxCell id="0" />
        <mxCell id="1" parent="0" />
      </root>
    </mxGraphModel>
  </diagram>
</mxfile>
